<svg xmlns="http://www.w3.org/2000/svg" width="72" height="36" viewBox="0 0 72 36"><defs><style>.a{fill:#6923cb;}</style></defs><g transform="translate(0 -128)"><g transform="translate(6 149)"><path class="a" d="M50.167,277.333a7.5,7.5,0,1,0,7.5,7.5A7.51,7.51,0,0,0,50.167,277.333Zm0,12a4.5,4.5,0,1,1,4.5-4.5A4.505,4.505,0,0,1,50.167,289.333Z" transform="translate(-42.667 -277.333)"/></g><g transform="translate(51 149)"><path class="a" d="M370.167,277.333a7.5,7.5,0,1,0,7.5,7.5A7.51,7.51,0,0,0,370.167,277.333Zm0,12a4.5,4.5,0,1,1,4.5-4.5A4.505,4.505,0,0,1,370.167,289.333Z" transform="translate(-362.667 -277.333)"/></g><g transform="translate(0 128)"><path class="a" d="M63,140H60.462a4.107,4.107,0,0,1-2.562-.9l-11.82-9.456A7.541,7.541,0,0,0,41.394,128H19.71a7.485,7.485,0,0,0-6.24,3.339l-2.553,3.834A4.107,4.107,0,0,1,7.5,137,7.51,7.51,0,0,0,0,144.5v6A7.51,7.51,0,0,0,7.5,158a1.5,1.5,0,1,0,0-3A4.505,4.505,0,0,1,3,150.5v-6A4.505,4.505,0,0,1,7.5,140a7.091,7.091,0,0,0,5.913-3.165L15.966,133a4.5,4.5,0,0,1,3.744-2H41.394a4.527,4.527,0,0,1,2.814.987l11.82,9.453A7.113,7.113,0,0,0,60.465,143H63c4.4,0,6,4.485,6,7.5a4.356,4.356,0,0,1-4.5,4.5,1.5,1.5,0,1,0,0,3,7.336,7.336,0,0,0,7.5-7.5C72,145.409,68.847,140,63,140Z" transform="translate(0 -128)"/></g><g transform="translate(18 155)"><path class="a" d="M162.5,320h-33a1.5,1.5,0,1,0,0,3h33a1.5,1.5,0,1,0,0-3Z" transform="translate(-128 -320)"/></g><g transform="translate(33 134)"><path class="a" d="M251.166,176.666h-13.5v-4.5a1.5,1.5,0,0,0-3,0v6a1.5,1.5,0,0,0,1.5,1.5h15a1.5,1.5,0,0,0,0-3Z" transform="translate(-234.666 -170.666)"/></g><g transform="translate(15 134.001)"><path class="a" d="M120.168,176.67H110.6l1.917-3.828a1.5,1.5,0,1,0-2.685-1.341l-3,6a1.5,1.5,0,0,0,1.341,2.169h12a1.5,1.5,0,0,0,0-3Z" transform="translate(-106.668 -170.671)"/></g><g transform="translate(36 146)"><path class="a" d="M260.5,256h-3a1.5,1.5,0,1,0,0,3h3a1.5,1.5,0,1,0,0-3Z" transform="translate(-256 -256)"/></g></g></svg>