<svg xmlns="http://www.w3.org/2000/svg" width="51.223" height="56.907" viewBox="0 0 51.223 56.907"><defs><style>.a{fill:#6923cb;}</style></defs><g transform="translate(-12 -8.005)"><path class="a" d="M61.761,59.684a4.847,4.847,0,0,0-4.4-.578L48.933,61.39a1.422,1.422,0,0,0,.745,2.746L58.1,61.854a2.367,2.367,0,0,1,1.929.086,1.049,1.049,0,0,1,.353.845c0,.075-.058.781-2.22,2.006L43.322,74.829a6.3,6.3,0,0,1-6.344.425L23.883,70.336a1.41,1.41,0,0,0-.5-.092H20.537V61.707H31.961l9.89,2.912a1.425,1.425,0,1,1-.7,2.762L33.9,65.217a1.424,1.424,0,0,0-.812,2.729l7.292,2.176a4.27,4.27,0,1,0,2.243-8.24L32.57,58.92a1.413,1.413,0,0,0-.4-.058H20.537V57.43a1.422,1.422,0,0,0-1.423-1.423H13.423A1.422,1.422,0,0,0,12,57.43V74.5a1.422,1.422,0,0,0,1.423,1.423h5.691A1.422,1.422,0,0,0,20.537,74.5V73.09h2.587l12.775,4.8a9.9,9.9,0,0,0,4.027.878,8.479,8.479,0,0,0,5.033-1.609l14.7-9.946c.881-.5,3.568-2.018,3.568-4.424a3.859,3.859,0,0,0-1.462-3.1Zm-44.069,13.4H14.846V58.853h2.846Z" transform="translate(0 -13.852)"/><path class="a" d="M40.535,39.2a1.429,1.429,0,0,0,1.078,0c7.965-3.261,16.535-10.987,16.535-20.248,0-4.82-2.337-8.766-6.1-10.3-3.5-1.427-7.526-.478-10.977,2.52-3.454-3-7.467-3.948-10.977-2.52-3.76,1.533-6.1,5.479-6.1,10.3,0,9.261,8.57,16.987,16.535,20.248ZM31.173,11.293a5.908,5.908,0,0,1,2.251-.436,9.6,9.6,0,0,1,6.633,3.271,1.465,1.465,0,0,0,2.034,0c2.826-2.893,6.144-3.956,8.884-2.835,2.671,1.087,4.327,4.023,4.327,7.663,0,7.748-7.273,14.36-14.228,17.387C34.118,33.317,26.846,26.7,26.846,18.956c0-3.641,1.656-6.577,4.327-7.663Z" transform="translate(-3.463)"/></g></svg>