<svg xmlns="http://www.w3.org/2000/svg" width="50.937" height="50.937" viewBox="0 0 50.937 50.937">
    <path id="svadlena_icon"
          d="M48.505,2.431a8.323,8.323,0,0,0-11.757,0c-.269.269-.894.986-1.8,2.063a9.454,9.454,0,0,0-13.01.34l-2.26,2.26A1.492,1.492,0,0,0,21.785,9.2l2.26-2.26a6.466,6.466,0,0,1,8.981-.158c-2.49,3-5.988,7.267-9.908,12.078A14.541,14.541,0,0,0,5.063,41.127C3.491,43.072,1.988,44.933.593,46.66a2.583,2.583,0,0,0,.186,3.5,2.584,2.584,0,0,0,3.5.185l5.508-4.45L14.093,50.2A1.492,1.492,0,0,0,16.2,48.09l-4.085-4.085c5.843-4.726,12.251-9.919,18.046-14.635l.231.231a10.493,10.493,0,0,0,15.95-13.529c1.131-.954,1.883-1.609,2.159-1.885a8.321,8.321,0,0,0,0-11.755ZM5.076,45.861C19.527,27.974,29.921,15.2,35.148,8.9l2.389,2.388L36.5,12.329a1.492,1.492,0,0,0,2.111,2.111l4.823-4.822a1.492,1.492,0,0,0-2.111-2.111L39.647,9.177,37.069,6.6c.944-1.12,1.548-1.815,1.791-2.057a5.328,5.328,0,0,1,7.535,7.534C45.058,13.412,30.05,25.683,5.076,45.861ZM7.825,23.372a11.426,11.426,0,0,1,6.932-3.318,11.626,11.626,0,0,1,6.441,1.17c-4.6,5.656-9.631,11.862-14.222,17.539a11.569,11.569,0,0,1,.85-15.391Zm37.49-.859A7.508,7.508,0,0,1,32.506,27.49l-.015-.015c4.585-3.737,8.652-7.069,11.555-9.481a7.487,7.487,0,0,1,1.269,4.519Z"
          transform="translate(0.001 0)" fill="#6923cb"/>
</svg>
