<?xml version="1.0" encoding="utf-8"?>
<!-- Generator: Adobe Illustrator 24.0.0, SVG Export Plug-In . SVG Version: 6.00 Build 0)  -->
<svg version="1.1" id="Layer_1" xmlns="http://www.w3.org/2000/svg" xmlns:xlink="http://www.w3.org/1999/xlink" x="0px" y="0px"
	 viewBox="0 0 250 90" style="enable-background:new 0 0 250 90;" xml:space="preserve">
<style type="text/css">
	.st0{fill:#262626;}
	.st1{fill:#C6C6C6;}
	.st2{enable-background:new    ;}
	.st3{fill:#6923CB;}
</style>
<g>
	<g>
		<g>
			<path class="st0" d="M16.38,37.86v0.94h-0.94l-1.75-0.26c-0.03-0.87-0.23-2.62-0.55-3.33c-0.52-0.39-1.62-0.78-2.75-0.78
				c-1.94,0-3.04,1.33-3.04,2.85c0,2.17,1.52,3.17,3.75,4.04c2.91,1.13,6.21,2.56,6.21,6.28c0,4.46-3.14,6.79-8.22,6.79
				c-2.1,0-4.53-0.45-6.6-1.42c0.39-2.04,0.65-4.11,0.65-5.98l2.59,0.29c0.06,1.55,0.19,2.88,0.49,3.95c0.65,0.55,2.04,1.1,3.43,1.1
				c2.46,0,3.62-1.42,3.62-3.53c0-2.69-2.04-3.43-4.24-4.21C6.09,43.55,3.41,42,3.41,38.54c0-4.11,3.49-6.02,7.12-6.02
				c1.88,0,4.37,0.49,6.08,1.29C16.51,34.75,16.38,36.4,16.38,37.86z"/>
			<path class="st0" d="M19.39,46.2c0-5.18,3.4-8.05,7.96-8.05c4.43,0,7.34,2.72,7.34,7.41c0,5.69-3.23,8.83-7.89,8.83
				C22.01,54.39,19.39,50.99,19.39,46.2z M23.75,45.14c0,3.17,0.65,7.6,3.75,7.6c2.17,0,2.91-2.39,2.91-5.6
				c0-4.04-1.16-7.38-3.82-7.38C24.43,39.77,23.75,41.93,23.75,45.14z"/>
			<path class="st0" d="M47.88,52.32l-1.91,1.55c-0.78,0.32-1.65,0.52-2.52,0.52c-3.69,0-5.14-1.71-5.14-4.98v-5.82
				c-0.06-0.91-0.1-1.68-0.26-2.36c-0.29-0.29-0.91-0.55-1.81-0.65l-0.16-1.07c1.97-0.32,3.75-0.65,5.5-1.36l0.81,0.52
				c-0.13,0.74-0.26,1.78-0.26,2.68v7.5c0,1.94,0.49,3.11,2.26,3.11c1.26,0,2.36-0.68,2.88-1.07v-7.34c0-0.87-0.1-1.71-0.26-2.39
				c-0.29-0.29-0.97-0.58-1.65-0.65l-0.16-1.07c1.97-0.29,3.59-0.61,5.34-1.29l0.81,0.52c-0.13,0.74-0.26,1.81-0.26,2.72v8.05
				c0,0.91,0.29,2.07,0.45,2.62c0.49,0.39,1.16,0.62,2.26,0.84v1.2c-0.78-0.06-2.23-0.1-3.01-0.1c-0.68,0-1.49,0.03-2.39,0.16
				c-0.06-0.68-0.19-1.39-0.32-1.84H47.88z"/>
			<path class="st0" d="M61.18,39.67c-1.39,0-2.23,0.81-2.23,2.01c0,1.36,1.52,2.04,3.33,2.78c2.17,0.87,4.56,1.78,4.56,4.72
				c0,3.3-2.56,5.21-6.4,5.21c-1.62,0-3.69-0.32-5.14-1.07c0.23-0.94,0.42-3.33,0.45-4.66l2.49,0.42c0.03,1.07,0.1,2.01,0.26,2.94
				c0.55,0.42,1.42,0.71,2.36,0.71c1.39,0,2.43-0.94,2.43-2.43c0-1.65-1.36-2.14-3.49-2.98c-2.36-0.94-4.17-2.01-4.17-4.46
				c0-3.23,3.01-4.72,5.95-4.72c1.36,0,3.82,0.42,4.88,0.97c-0.19,1-0.32,2.85-0.36,4.14h-1.13l-1.39-0.36v-0.49
				c0-0.81-0.1-1.55-0.29-2.13C62.89,39.93,61.86,39.67,61.18,39.67z"/>
			<path class="st0" d="M82.53,51.64c-0.87,0.68-2.65,1.94-3.17,2.23c-1.04,0.39-1.91,0.52-3.14,0.52c-4.14,0-7.28-2.88-7.28-7.83
				c0-5.01,3.33-8.41,7.73-8.41c4.21,0,5.86,2.94,5.86,6.73l-1.1,0.78l-8.28,0.39c0,3.23,1.29,5.82,4.33,5.82
				c1.29,0,2.3-0.39,4.27-1.55L82.53,51.64z M78.65,43.94c0-2.39-0.74-4.08-2.36-4.08c-1.68,0-2.91,1.81-3.11,4.66L78.65,43.94z"/>
			<path class="st0" d="M99.06,52.06c0.61,0.42,1.16,0.65,2.17,0.87v1.23C99.71,54.03,98.96,54,98.25,54c-0.74,0-1.23,0-2.72,0.13
				c-0.1-0.61-0.23-1.13-0.32-1.62h-0.23c-0.49,0.39-1.36,1.03-1.97,1.58c-0.52,0.19-1.23,0.32-2.1,0.32
				c-4.56,0-6.44-3.27-6.44-7.89c0-5.5,3.91-8.38,7.5-8.38c1.2,0,2.07,0.13,2.75,0.39v-1.71c0-0.87-0.1-1.68-0.26-2.36
				c-0.29-0.29-1.1-0.52-2.2-0.61l-0.16-0.97c1.97-0.32,4.14-0.68,5.89-1.39L98.8,32c-0.13,0.74-0.26,1.81-0.26,2.72v14.49
				C98.54,50.31,98.83,51.51,99.06,52.06z M94.72,40.9c-0.52-0.55-1.55-1.16-2.65-1.16c-1.91,0-3.36,1.55-3.36,6.21
				c0,2.85,0.94,5.89,3.36,5.89c0.94,0,1.97-0.32,2.65-0.84V40.9z"/>
			<path class="st0" d="M108.34,39.67c-1.39,0-2.23,0.81-2.23,2.01c0,1.36,1.52,2.04,3.33,2.78c2.17,0.87,4.56,1.78,4.56,4.72
				c0,3.3-2.56,5.21-6.4,5.21c-1.62,0-3.69-0.32-5.14-1.07c0.23-0.94,0.42-3.33,0.45-4.66l2.49,0.42c0.03,1.07,0.1,2.01,0.26,2.94
				c0.55,0.42,1.42,0.71,2.36,0.71c1.39,0,2.43-0.94,2.43-2.43c0-1.65-1.36-2.14-3.49-2.98c-2.36-0.94-4.17-2.01-4.17-4.46
				c0-3.23,3.01-4.72,5.95-4.72c1.36,0,3.82,0.42,4.88,0.97c-0.19,1-0.32,2.85-0.36,4.14h-1.13l-1.39-0.36v-0.49
				c0-0.81-0.1-1.55-0.29-2.13C110.06,39.93,109.02,39.67,108.34,39.67z"/>
			<path class="st0" d="M121.7,45.2h0.16l4.27-4.82l-0.03-0.26c-0.36-0.1-1.36-0.13-1.81-0.16v-1.33h7.08l0.16,1.36
				c-0.55,0.1-1.81,0.49-2.33,0.71l-4.3,4.11l5.98,7.18l1.29,1v1h-4.63c-0.39-0.58-0.81-1.17-1.29-1.78l-4.37-5.69h-0.19v3.62
				c0.03,0.55,0.13,1.52,0.32,2.13c0.58,0.32,1.04,0.45,1.91,0.65v1.2c-1.33-0.06-2.78-0.13-3.98-0.13c-1.1,0-2.81,0.07-3.98,0.13
				V52.9c0.58-0.13,1.23-0.39,1.52-0.65c0.19-0.87,0.32-1.46,0.39-2.65V36.95c0-0.87-0.1-1.68-0.26-2.36
				c-0.29-0.29-1.1-0.52-2.2-0.61l-0.16-0.97c1.97-0.32,4.14-0.68,5.89-1.39l0.81,0.52c-0.13,0.74-0.26,1.81-0.26,2.72V45.2z"/>
			<path class="st0" d="M142.27,52.32h-0.19c-0.58,0.45-1.13,0.97-1.75,1.46c-0.55,0.39-1.29,0.65-2.72,0.65
				c-2.26,0-4.24-0.97-4.24-4.11c0-1.36,0.52-2.36,1.1-3.01c1.42-0.78,4.2-1.55,6.99-2.2V43.2c0-2.1-0.39-3.17-2.2-3.17
				c-0.94,0-1.75,0.23-1.75,0.23c-0.16,0.52-0.26,1.42-0.26,2.26c0,0.23,0,0.36,0.03,0.65l-1.62,0.45h-1
				c-0.1-1.13-0.26-2.49-0.42-3.56c1.55-0.78,4.82-1.91,6.41-1.91c3.43,0,4.66,1.59,4.66,4.37v6.92c0,0.91,0.26,2.07,0.42,2.62
				c0.49,0.39,1.17,0.62,2.26,0.84v1.2c-0.78-0.06-2.23-0.1-3.01-0.1c-0.68,0-1.49,0.03-2.39,0.16
				C142.53,53.48,142.4,52.77,142.27,52.32z M137.39,35.59l3.65-5.66c1.2,0.52,2.81,0.91,3.66,1.07v0.65l-5.95,5.08L137.39,35.59z
				 M141.47,46.59c-1.42,0.39-2.75,0.87-3.36,1.29c-0.36,0.39-0.68,1.04-0.68,1.97c0,1.29,0.61,2.07,1.88,2.07
				c0.84,0,1.62-0.39,2.17-0.87V46.59z"/>
			<path class="st0" d="M156.34,55.97V43.55c-0.07-0.94-0.1-1.68-0.23-2.23c-0.23-0.29-1-0.49-1.97-0.61l-0.13-0.94
				c1.88-0.32,3.14-0.81,4.79-1.55l0.78,0.39c0,0.42,0.1,1.04,0.23,1.49l0.23,0.06c0.62-0.45,1.26-1.16,1.75-1.49
				c0.65-0.29,1.36-0.52,2.43-0.52c3.23,0,6.31,2.04,6.31,7.54c0,4.85-3.33,8.7-8.28,8.7c-0.81,0-1.46-0.1-2.07-0.26v2.46
				c0.07,0.74,0.13,1.36,0.29,1.78c0.62,0.39,1.42,0.58,2.98,0.84v1.26c-1.29-0.06-3.24-0.1-4.43-0.1c-1.26,0-3.11,0.03-4.4,0.13
				v-1.23c0.55-0.1,1.1-0.32,1.36-0.55C156.18,57.88,156.28,57.14,156.34,55.97z M166.24,46.33c0-3.88-1.23-5.79-3.33-5.79
				c-1.42,0-2.68,0.81-2.68,0.81v10.51c0.52,0.39,1.49,0.78,2.46,0.78C165.24,52.64,166.24,50.05,166.24,46.33z"/>
			<path class="st0" d="M172.68,46.2c0-5.18,3.4-8.05,7.96-8.05c4.43,0,7.34,2.72,7.34,7.41c0,5.69-3.23,8.83-7.89,8.83
				C175.3,54.39,172.68,50.99,172.68,46.2z M177.05,45.14c0,3.17,0.65,7.6,3.75,7.6c2.17,0,2.91-2.39,2.91-5.6
				c0-4.04-1.17-7.38-3.82-7.38C177.73,39.77,177.05,41.93,177.05,45.14z"/>
			<path class="st0" d="M191.86,43.68c-0.03-1-0.1-1.81-0.23-2.36c-0.23-0.29-1-0.49-1.97-0.61l-0.13-0.94
				c1.88-0.32,3.14-0.81,4.79-1.55l0.78,0.39c0,0.42,0.1,1.04,0.23,1.49l0.23,0.06c0.49-0.49,1.23-1.23,1.68-1.55
				c0.91-0.36,1.81-0.45,2.69-0.45c2.04,0,3.2,0.87,3.85,2.2c0.61-0.55,1.62-1.39,2.07-1.71c0.91-0.36,1.84-0.49,2.72-0.49
				c3.17,0,4.43,1.97,4.43,5.18v7.18c0.03,0.62,0.13,1.13,0.29,1.65c0.48,0.32,0.97,0.55,2.1,0.74v1.23
				c-1.17-0.06-2.75-0.13-3.88-0.13s-2.88,0.07-4.04,0.13v-1.26c0.58-0.06,1.07-0.29,1.36-0.52c0.19-0.87,0.26-1.46,0.32-2.59v-6.44
				c0-1.71-0.58-2.68-1.97-2.68c-1.13,0-2.2,0.55-2.94,1.1c0.1,0.49,0.13,1.04,0.13,1.59v7.18c0.03,0.62,0.13,1.13,0.29,1.65
				c0.48,0.32,0.97,0.55,2.1,0.74v1.23c-1.16-0.06-2.75-0.13-3.88-0.13c-1.13,0-2.88,0.07-4.04,0.13v-1.26
				c0.58-0.06,1.07-0.29,1.36-0.52c0.19-0.87,0.26-1.46,0.32-2.59v-6.44c0-1.71-0.58-2.68-1.97-2.68c-1.17,0-2.1,0.49-2.85,1.07v8.8
				c0.03,0.62,0.13,1.13,0.29,1.65c0.49,0.32,0.97,0.55,1.91,0.74v1.23c-1.16-0.06-2.59-0.13-3.72-0.13c-1.13,0-2.98,0.07-4.11,0.13
				v-1.16c0.52-0.13,1.13-0.36,1.42-0.62c0.19-0.87,0.32-1.46,0.39-2.59V43.68z"/>
			<path class="st0" d="M216.61,46.2c0-5.18,3.4-8.05,7.96-8.05c4.43,0,7.34,2.72,7.34,7.41c0,5.69-3.23,8.83-7.89,8.83
				C219.23,54.39,216.61,50.99,216.61,46.2z M220.97,45.14c0,3.17,0.65,7.6,3.75,7.6c2.17,0,2.91-2.39,2.91-5.6
				c0-4.04-1.17-7.38-3.82-7.38C221.65,39.77,220.97,41.93,220.97,45.14z"/>
			<path class="st0" d="M247.14,43.71h-1.13l-1.49-0.36v-0.71c0-0.81-0.1-1.55-0.29-2.14c-0.52-0.32-1.52-0.65-2.43-0.65
				c-1.94,0-3.59,1.78-3.59,5.6c0,3.65,1.13,6.5,4.3,6.5c1.17,0,2.46-0.52,4.01-1.49l0.74,1.33c-1.1,0.81-2.17,1.62-2.85,2.04
				c-0.91,0.39-1.84,0.55-3.01,0.55c-4.4,0-7.41-2.98-7.41-7.63c0-5.27,3.65-8.6,7.93-8.6c2.1,0,4.46,0.68,5.56,1.2
				C247.31,40.35,247.18,42.42,247.14,43.71z"/>
		</g>
		<g>
			<polygon class="st1" points="138.74,1.06 116.22,23.58 119.08,23.58 141.6,1.06 			"/>
			<polygon class="st1" points="53.72,88.94 75.8,66.86 72.94,66.86 50.86,88.94 			"/>
		</g>
	</g>
	<g class="st2">
		<path class="st3" d="M89.12,75.03c1.9,0,3.38,1.48,3.38,3.79c0,2.31-1.48,3.84-3.38,3.84c-1.16,0-1.99-0.57-2.44-1.17v4.58h-1.87
			V75.15h1.87v1.07C87.11,75.59,87.97,75.03,89.12,75.03z M88.62,76.67c-1,0-1.95,0.77-1.95,2.18c0,1.4,0.95,2.18,1.95,2.18
			c1.01,0,1.96-0.8,1.96-2.2C90.58,77.42,89.64,76.67,88.62,76.67z"/>
		<path class="st3" d="M97.14,82.66c-2.14,0-3.75-1.5-3.75-3.82c0-2.34,1.67-3.82,3.8-3.82s3.8,1.48,3.8,3.82
			C101,81.17,99.29,82.66,97.14,82.66z M97.14,81.03c0.99,0,1.93-0.72,1.93-2.19c0-1.48-0.92-2.19-1.91-2.19s-1.88,0.71-1.88,2.19
			C95.29,80.31,96.14,81.03,97.14,81.03z"/>
		<path class="st3" d="M112.72,78.46c0-1.17-0.65-1.79-1.64-1.79c-1,0-1.66,0.61-1.66,1.79v4.08h-1.87v-4.08
			c0-1.17-0.65-1.79-1.64-1.79c-1.01,0-1.67,0.61-1.67,1.79v4.08h-1.87v-7.39h1.87v0.89c0.47-0.61,1.25-1,2.18-1
			c1.15,0,2.1,0.49,2.6,1.41c0.48-0.84,1.46-1.41,2.54-1.41c1.77,0,3.03,1.12,3.03,3.16v4.34h-1.87V78.46z"/>
		<path class="st3" d="M119.66,82.66c-2.14,0-3.75-1.5-3.75-3.82c0-2.34,1.67-3.82,3.8-3.82c2.14,0,3.8,1.48,3.8,3.82
			C123.52,81.17,121.81,82.66,119.66,82.66z M119.66,81.03c0.99,0,1.93-0.72,1.93-2.19c0-1.48-0.92-2.19-1.91-2.19
			c-0.99,0-1.88,0.71-1.88,2.19C117.8,80.31,118.66,81.03,119.66,81.03z"/>
		<path class="st3" d="M129.86,76.66l-3.26,4.35h3.3v1.53h-5.42v-1.51l3.23-4.35h-3.22v-1.54h5.37V76.66z"/>
		<path class="st3" d="M141.69,78.46c0-1.17-0.65-1.79-1.64-1.79c-1,0-1.66,0.61-1.66,1.79v4.08h-1.87v-4.08
			c0-1.17-0.65-1.79-1.64-1.79c-1.01,0-1.67,0.61-1.67,1.79v4.08h-1.87v-7.39h1.87v0.89c0.47-0.61,1.25-1,2.18-1
			c1.15,0,2.1,0.49,2.6,1.41c0.48-0.84,1.46-1.41,2.54-1.41c1.77,0,3.03,1.12,3.03,3.16v4.34h-1.87V78.46z"/>
		<path class="st3" d="M148.57,82.66c-2.15,0-3.71-1.5-3.71-3.82c0-2.34,1.52-3.82,3.71-3.82c2.14,0,3.64,1.45,3.64,3.66
			c0,0.24-0.01,0.48-0.05,0.72h-5.41c0.09,1.09,0.84,1.71,1.78,1.71c0.8,0,1.24-0.4,1.48-0.89h2.01
			C151.63,81.58,150.4,82.66,148.57,82.66z M146.77,78.15h3.51c-0.03-0.97-0.8-1.59-1.76-1.59
			C147.62,76.56,146.92,77.14,146.77,78.15z"/>
		<path class="st3" d="M159.59,82.66c-1.86,0-3.15-1.08-3.23-2.46h1.88c0.07,0.56,0.59,0.99,1.33,0.99c0.73,0,1.13-0.33,1.13-0.76
			c0-1.32-4.18-0.48-4.18-3.19c0-1.23,1.09-2.21,2.92-2.21c1.79,0,2.87,0.97,2.98,2.44h-1.79c-0.05-0.57-0.51-0.96-1.24-0.96
			c-0.69,0-1.05,0.28-1.05,0.71c0,1.35,4.1,0.51,4.15,3.22C162.5,81.7,161.39,82.66,159.59,82.66z"/>
		<path class="st3" d="M163.84,73.17c0-0.61,0.48-1.09,1.15-1.09c0.65,0,1.15,0.48,1.15,1.09c0,0.61-0.49,1.09-1.15,1.09
			C164.32,74.27,163.84,73.79,163.84,73.17z M164.04,75.15h1.87v7.39h-1.87V75.15z"/>
		<path class="st3" d="M181.27,78.46c0-1.17-0.65-1.79-1.64-1.79c-1,0-1.66,0.61-1.66,1.79v4.08h-1.87v-4.08
			c0-1.17-0.65-1.79-1.64-1.79c-1.01,0-1.67,0.61-1.67,1.79v4.08h-1.87v-7.39h1.87v0.89c0.47-0.61,1.25-1,2.18-1
			c1.15,0,2.1,0.49,2.6,1.41c0.48-0.84,1.46-1.41,2.54-1.41c1.77,0,3.03,1.12,3.03,3.16v4.34h-1.87V78.46z"/>
		<path class="st3" d="M188.15,82.66c-2.15,0-3.71-1.5-3.71-3.82c0-2.34,1.52-3.82,3.71-3.82c2.14,0,3.64,1.45,3.64,3.66
			c0,0.24-0.01,0.48-0.05,0.72h-5.41c0.09,1.09,0.84,1.71,1.78,1.71c0.8,0,1.24-0.4,1.48-0.89h2.01
			C191.21,81.58,189.98,82.66,188.15,82.66z M186.35,78.15h3.51c-0.03-0.97-0.8-1.59-1.76-1.59
			C187.21,76.56,186.5,77.14,186.35,78.15z"/>
		<path class="st3" d="M198.13,76.66l-3.26,4.35h3.3v1.53h-5.42v-1.51l3.23-4.35h-3.22v-1.54h5.37V76.66z"/>
		<path class="st3" d="M199.41,73.17c0-0.61,0.48-1.09,1.15-1.09c0.65,0,1.15,0.48,1.15,1.09c0,0.61-0.49,1.09-1.15,1.09
			C199.89,74.27,199.41,73.79,199.41,73.17z M199.61,75.15h1.87v7.39h-1.87V75.15z"/>
		<path class="st3" d="M209.33,82.66c-1.86,0-3.15-1.08-3.23-2.46h1.88c0.07,0.56,0.59,0.99,1.33,0.99c0.73,0,1.13-0.33,1.13-0.76
			c0-1.32-4.18-0.48-4.18-3.19c0-1.23,1.09-2.21,2.92-2.21c1.79,0,2.87,0.97,2.98,2.44h-1.79c-0.05-0.57-0.51-0.96-1.24-0.96
			c-0.69,0-1.05,0.28-1.05,0.71c0,1.35,4.1,0.51,4.15,3.22C212.24,81.7,211.13,82.66,209.33,82.66z"/>
		<path class="st3" d="M217.01,82.66c-2.15,0-3.71-1.5-3.71-3.82c0-2.34,1.52-3.82,3.71-3.82c2.14,0,3.64,1.45,3.64,3.66
			c0,0.24-0.01,0.48-0.05,0.72h-5.41c0.09,1.09,0.84,1.71,1.78,1.71c0.8,0,1.24-0.4,1.48-0.89h2.01
			C220.07,81.58,218.84,82.66,217.01,82.66z M215.21,78.15h3.51c-0.03-0.97-0.8-1.59-1.76-1.59
			C216.06,76.56,215.36,77.14,215.21,78.15z"/>
		<path class="st3" d="M226.33,75.03c1.9,0,3.38,1.48,3.38,3.79c0,2.31-1.48,3.84-3.38,3.84c-1.16,0-1.99-0.53-2.44-1.17v1.05h-1.87
			v-9.88h1.87v3.56C224.34,75.55,225.21,75.03,226.33,75.03z M225.84,76.67c-1,0-1.95,0.77-1.95,2.18c0,1.4,0.95,2.18,1.95,2.18
			c1.01,0,1.96-0.8,1.96-2.2C227.8,77.42,226.85,76.67,225.84,76.67z"/>
		<path class="st3" d="M234.36,82.66c-2.14,0-3.75-1.5-3.75-3.82c0-2.34,1.67-3.82,3.8-3.82c2.14,0,3.8,1.48,3.8,3.82
			C238.21,81.17,236.51,82.66,234.36,82.66z M234.36,81.03c0.99,0,1.93-0.72,1.93-2.19c0-1.48-0.92-2.19-1.91-2.19
			s-1.88,0.71-1.88,2.19C232.5,80.31,233.36,81.03,234.36,81.03z"/>
		<path class="st3" d="M246.57,82.54h-1.88v-0.93c-0.47,0.63-1.28,1.03-2.2,1.03c-1.72,0-2.96-1.12-2.96-3.15v-4.34h1.87v4.07
			c0,1.19,0.65,1.83,1.64,1.83c1.01,0,1.66-0.64,1.66-1.83v-4.07h1.88V82.54z"/>
	</g>
</g>
</svg>
